<svg width="92" height="32" viewBox="0 0 92 32" fill="none" xmlns="http://www.w3.org/2000/svg">
<g clip-path="url(#clip0_256_3)">
<path d="M-1.52333e-05 4C-1.52333e-05 1.79 1.74998 0 3.89998 0H88.1C90.25 0 92 1.79 92 4V28C92 30.21 90.25 32 88.1 32H3.89998C3.38125 31.9935 2.86888 31.8848 2.39214 31.6803C1.9154 31.4757 1.48362 31.1793 1.12146 30.8078C0.759307 30.4364 0.473866 29.9972 0.281441 29.5155C0.0890163 29.0337 -0.00662303 28.5187 -1.52333e-05 28V4Z" fill="#1374EF"/>
<path fill-rule="evenodd" clip-rule="evenodd" d="M34 32V0H35V32H34Z" fill="#1269D3"/>
<g clip-path="url(#clip1_256_3)">
<path d="M23.2477 10.1725C22.0651 9.61685 20.8166 9.22267 19.5342 9C19.3587 9.32194 19.1999 9.65318 19.0585 9.99232C17.6925 9.78107 16.3033 9.78107 14.9372 9.99232C14.7957 9.65321 14.6369 9.32198 14.4615 9C13.1783 9.22455 11.929 9.61966 10.7451 10.1754C8.39498 13.7437 7.75789 17.2233 8.07644 20.6536C9.45275 21.6971 10.9932 22.4908 12.6309 23C12.9997 22.491 13.326 21.9511 13.6064 21.3858C13.0738 21.1817 12.5598 20.9299 12.0703 20.6332C12.1991 20.5374 12.3251 20.4386 12.4469 20.3427C13.8713 21.0301 15.4259 21.3865 17 21.3865C18.574 21.3865 20.1287 21.0301 21.5531 20.3427C21.6762 20.4458 21.8023 20.5446 21.9297 20.6332C21.4392 20.9304 20.9242 21.1827 20.3907 21.3873C20.6708 21.9523 20.9971 22.4918 21.3662 23C23.0053 22.4928 24.547 21.6996 25.9235 20.655C26.2973 16.677 25.285 13.2293 23.2477 10.1725ZM14.0099 18.544C13.1222 18.544 12.3888 17.7173 12.3888 16.7003C12.3888 15.6833 13.0967 14.8493 14.0071 14.8493C14.9174 14.8493 15.6451 15.6833 15.6295 16.7003C15.614 17.7173 14.9146 18.544 14.0099 18.544ZM19.9901 18.544C19.101 18.544 18.3704 17.7173 18.3704 16.7003C18.3704 15.6833 19.0783 14.8493 19.9901 14.8493C20.9018 14.8493 21.6239 15.6833 21.6083 16.7003C21.5927 17.7173 20.8947 18.544 19.9901 18.544Z" fill="white"/>
</g>
<path d="M44 21.8466V11.3068H45.9445V20.2616H50.8811V21.8466H44Z" fill="white" fill-opacity="0.98"/>
<path d="M52.9275 12.994C52.3396 12.994 51.8799 12.5412 51.8799 12.0007C51.8799 11.4456 52.3396 11 52.9275 11C53.5154 11 53.9676 11.4456 53.9676 12.0007C53.9676 12.5412 53.5154 12.994 52.9275 12.994ZM51.9854 21.8466V14.1042H53.8621V21.8466H51.9854Z" fill="white" fill-opacity="0.98"/>
<path d="M58.4258 22C56.3305 22 55.1322 21.0359 54.9664 19.5969L54.9588 19.5312H56.8053L56.8204 19.5969C56.9636 20.2616 57.4837 20.656 58.4333 20.656C59.3453 20.656 59.8954 20.2981 59.8954 19.7284V19.7211C59.8954 19.2537 59.6166 18.9907 58.7875 18.8081L57.4611 18.5232C55.9311 18.1946 55.1623 17.4714 55.1623 16.3247V16.3174C55.1623 14.9004 56.436 13.9436 58.3655 13.9436C60.3552 13.9436 61.5159 15.0027 61.5837 16.3393L61.5912 16.4197H59.8427L59.8351 16.3612C59.7522 15.7404 59.2397 15.2875 58.3655 15.2875C57.5364 15.2875 57.0164 15.66 57.0164 16.2297V16.2371C57.0164 16.6826 57.3254 16.9748 58.1544 17.1574L59.4885 17.4422C61.139 17.8001 61.7796 18.4283 61.7796 19.5531V19.5604C61.7796 21.0212 60.3853 22 58.4258 22Z" fill="white" fill-opacity="0.98"/>
<path d="M65.7932 22C64.12 22 63.3286 21.3426 63.3286 19.7503V15.5066H62.1981V14.1042H63.3286V12.1394H65.2354V14.1042H66.7202V15.5066H65.2354V19.5969C65.2354 20.3566 65.5821 20.5976 66.268 20.5976C66.4489 20.5976 66.5921 20.5757 66.7202 20.5684V21.9343C66.5016 21.9635 66.17 22 65.7932 22Z" fill="white" fill-opacity="0.98"/>
<path d="M71.216 22C68.8193 22 67.3723 20.4588 67.3723 17.9973V17.99C67.3723 15.5505 68.8419 13.9436 71.1256 13.9436C73.4093 13.9436 74.8262 15.4993 74.8262 17.8367V18.421H69.2339C69.264 19.7795 70.0328 20.583 71.2537 20.583C72.1883 20.583 72.7988 20.1009 72.9797 19.5823L72.9947 19.5312H74.7508L74.7282 19.6116C74.4795 20.8021 73.3037 22 71.216 22ZM71.1482 15.3679C70.1533 15.3679 69.4072 16.0179 69.2565 17.2085H73.0023C72.8666 15.9814 72.1431 15.3679 71.1482 15.3679Z" fill="white" fill-opacity="0.98"/>
<path d="M75.8852 21.8466V14.1042H77.7619V15.3167H77.7996C78.2141 14.4841 79.0281 13.9436 80.2415 13.9436C81.9976 13.9436 83 15.0392 83 16.836V21.8466H81.1233V17.2012C81.1233 16.0983 80.5958 15.4774 79.5255 15.4774C78.4478 15.4774 77.7619 16.2371 77.7619 17.3546V21.8466H75.8852Z" fill="white" fill-opacity="0.98"/>
</g>
<defs>
<clipPath id="clip0_256_3">
<rect width="92" height="32" fill="white"/>
</clipPath>
<clipPath id="clip1_256_3">
<rect width="18" height="14" fill="white" transform="translate(8 9)"/>
</clipPath>
</defs>
</svg>
