<svg width="85" height="85" viewBox="0 0 85 85" fill="none" xmlns="http://www.w3.org/2000/svg">
<path d="M0 42.5C0 19.0279 19.0279 0 42.5 0V0C65.9721 0 85 19.0279 85 42.5V42.5C85 65.9721 65.9721 85 42.5 85V85C19.0279 85 0 65.9721 0 42.5V42.5Z" fill="#5A724C"/>
<path d="M29.2774 25.6895C30.7743 25.6895 32.1368 25.8618 33.3649 26.2066C34.6315 26.513 35.6677 26.9152 36.4737 27.4131C37.4716 28.026 38.2392 28.7921 38.7765 29.7114C39.3522 30.5923 39.6401 31.6265 39.6401 32.814C39.6401 34.1546 39.2179 35.2654 38.3735 36.1464C37.5292 36.9891 36.4353 37.4104 35.092 37.4104C33.7487 37.4104 32.6741 37.0274 31.8681 36.2613C31.0621 35.4952 30.6591 34.461 30.6591 33.1587C30.6591 31.933 31.0429 30.9179 31.8105 30.1135C32.5781 29.2709 33.4609 28.7155 34.4588 28.4473C34.1517 28.0643 33.6912 27.7387 33.0771 27.4706C32.463 27.2025 31.7721 27.0684 31.0045 27.0684C29.8148 27.0684 28.7593 27.4131 27.8382 28.1026C26.9554 28.7921 26.207 29.7497 25.5929 30.9754C24.9789 32.2011 24.4991 33.6375 24.1537 35.2845C23.8466 36.9316 23.6931 38.7319 23.6931 40.6854C23.6931 43.6347 24.0577 45.9521 24.787 47.6375C25.5546 49.3228 26.5141 50.5103 27.6655 51.1997C28.8553 51.8892 30.0834 52.2339 31.35 52.2339C32.0792 52.2339 32.866 52.119 33.7104 51.8892C34.5931 51.6594 35.4758 51.1997 36.3586 50.5103C37.2797 49.8208 38.1241 48.8441 38.8917 47.58L39.8704 47.9248C39.4482 49.342 38.7573 50.7592 37.7978 52.1765C36.8383 53.5937 35.591 54.762 34.0558 55.6813C32.5206 56.5622 30.6399 57.0027 28.4139 57.0027C25.9192 57.0027 23.6547 56.4665 21.6206 55.394C19.6248 54.2832 18.0128 52.5978 16.7847 50.3379C15.5949 48.0397 15 45.0903 15 41.4897C15 38.0424 15.6141 35.1505 16.8422 32.814C18.1088 30.4391 19.8167 28.658 21.966 27.4706C24.1153 26.2832 26.5524 25.6895 29.2774 25.6895Z" fill="white" fill-opacity="0.9"/>
<path d="M52.8867 67C50.5071 67 48.377 66.7893 46.4964 66.368C44.6541 65.985 43.1957 65.3721 42.121 64.5294C41.0847 63.725 40.5666 62.7291 40.5666 61.5417C40.5666 60.3543 41.1039 59.2818 42.1786 58.3242C43.2532 57.4049 44.846 56.6772 46.9569 56.1409L47.475 57.0602C46.7458 57.6347 46.2085 58.2476 45.8631 58.8988C45.556 59.5882 45.4025 60.2969 45.4025 61.0246C45.4025 62.6334 46.1317 63.8591 47.5902 64.7018C49.087 65.5828 51.102 66.0233 53.6351 66.0233C55.3622 66.0233 56.8974 65.7934 58.2407 65.3338C59.6224 64.8741 60.697 64.1847 61.4646 63.2654C62.2706 62.3461 62.6736 61.2161 62.6736 59.8755C62.6736 58.7264 62.2514 57.7497 61.4071 56.9453C60.5627 56.1792 58.874 55.7962 56.3409 55.7962H52.7715C51.1979 55.7962 49.8162 55.6238 48.6265 55.2791C47.475 54.9343 46.5731 54.3981 45.9206 53.6703C45.2682 52.9042 44.942 51.9467 44.942 50.7975C44.942 49.1888 45.5752 47.7715 46.8418 46.5458C48.1083 45.3201 49.989 44.171 52.4837 43.0985L53.0594 43.5581C52.3301 44.0178 51.6393 44.5157 50.9868 45.052C50.3728 45.5499 50.0657 46.2011 50.0657 47.0055C50.0657 48.2312 50.8333 48.8441 52.3685 48.8441H58.6437C60.7546 48.8441 62.6352 49.093 64.2856 49.591C65.9743 50.0889 67.2984 50.9125 68.2579 52.0616C69.2558 53.1724 69.7548 54.6279 69.7548 56.4282C69.7548 58.3051 69.1407 60.0479 67.9125 61.6566C66.7227 63.2654 64.8805 64.5486 62.3858 65.5062C59.891 66.5021 56.7247 67 52.8867 67ZM53.4624 43.9603C51.2747 43.9603 49.3173 43.6347 47.5902 42.9836C45.8631 42.3324 44.5006 41.3365 43.5027 39.9959C42.5048 38.6553 42.0059 36.9316 42.0059 34.8249C42.0059 32.7182 42.5048 30.9945 43.5027 29.6539C44.5006 28.275 45.8631 27.2791 47.5902 26.6662C49.3173 26.015 51.2747 25.6895 53.4624 25.6895C55.65 25.6895 57.6074 26.015 59.3345 26.6662C61.0616 27.2791 62.4241 28.275 63.422 29.6539C64.4199 30.9945 64.9189 32.7182 64.9189 34.8249C64.9189 36.9316 64.4199 38.6553 63.422 39.9959C62.4241 41.3365 61.0616 42.3324 59.3345 42.9836C57.6074 43.6347 55.65 43.9603 53.4624 43.9603ZM53.4624 42.9261C54.4986 42.9261 55.3046 42.3516 55.8803 41.2025C56.456 40.015 56.7439 37.8892 56.7439 34.8249C56.7439 31.7606 56.456 29.6539 55.8803 28.5048C55.3046 27.3174 54.4986 26.7237 53.4624 26.7237C52.4645 26.7237 51.6585 27.3174 51.0444 28.5048C50.4687 29.6539 50.1809 31.7606 50.1809 34.8249C50.1809 37.8892 50.4687 40.015 51.0444 41.2025C51.6585 42.3516 52.4645 42.9261 53.4624 42.9261ZM62.4433 30.6306L61.2919 30.2285C61.8676 28.7346 62.7888 27.4897 64.0553 26.4938C65.3602 25.4979 66.7611 25 68.2579 25C69.4861 25 70.4072 25.3447 71.0213 26.0342C71.6738 26.6854 72 27.5472 72 28.6197C72 29.7688 71.693 30.6306 71.0789 31.2052C70.4648 31.7415 69.7739 32.0096 69.0063 32.0096C68.3539 32.0096 67.7398 31.7798 67.1641 31.3201C66.6268 30.8605 66.3197 30.171 66.243 29.2517C66.1662 28.2941 66.4924 27.0684 67.2217 25.5746L67.6247 25.9193C66.1662 26.4555 65.0724 27.0876 64.3432 27.8153C63.6139 28.5048 62.9807 29.4432 62.4433 30.6306Z" fill="white" fill-opacity="0.9"/>
</svg>
